<svg xmlns="http://www.w3.org/2000/svg" width="200" height="200" viewBox="0 0 200 200">
  <g id="Group_1544" data-name="Group 1544" transform="translate(0)">
    <g id="Group_1495" data-name="Group 1495" transform="translate(0 0)">
      <rect id="Rectangle_5" data-name="Rectangle 5" width="200" height="200" rx="5" fill="#f26522"/>
    </g>
    <g id="es6" transform="translate(16.9 16.9)">
      <path id="Path_3049" data-name="Path 3049" d="M0,0H164.7V164.7H0Z" fill="#f26522"/>
      <path id="Path_3050" data-name="Path 3050" d="M105.536,136.979h25.287V130.1H113.346v-10.66H129.46v-6.88H113.346v-9.979h17.478V95.7H105.536v41.278ZM164.6,125.761c0-8.244-.558-10.041-11.652-12.706-7.128-1.735-7.252-1.859-7.252-6.57,0-3.594.93-4.71,6.2-4.71a54.193,54.193,0,0,1,11.032,1.24l.868-6.57a56.319,56.319,0,0,0-12.025-1.364c-10.474,0-13.883,3.719-13.883,11.218,0,8.74,1.363,10.661,11.342,12.892,7.438,1.611,7.562,1.983,7.562,6.57,0,3.966-.93,5.144-6.57,5.144a38.877,38.877,0,0,1-11.651-1.922l-1.364,6.136A34.755,34.755,0,0,0,150.1,137.6c12.209,0,14.5-4.029,14.5-11.838Zm14.379-15.371c0-6.322,3.037-7.562,10.35-7.562a35.254,35.254,0,0,1,5.826.559l.5-6.322a36,36,0,0,0-7.128-.743c-11.28,0-17.106,3.471-17.106,14.379v15.061c0,7.128,2.107,11.837,12.767,11.837,9.731,0,12.706-4.834,12.706-11.279v-2.975c0-7.128-3.037-10.227-10.536-10.227a23.024,23.024,0,0,0-7.376,1.116Zm6.2,9.235c2.727,0,4.152.93,4.152,3.9v3.037c0,3.161-1.24,4.524-5.144,4.524s-5.206-1.116-5.206-4.524v-5.64a16.237,16.237,0,0,1,6.2-1.3Z" transform="translate(-38.003 -33.989)" fill="#fff"/>
    </g>
  </g>
</svg>
