<svg id="Group_1493" data-name="Group 1493" xmlns="http://www.w3.org/2000/svg" width="200" height="200" viewBox="0 0 200 200">
  <rect id="Rectangle_7" data-name="Rectangle 7" width="200" height="200" rx="5" transform="translate(0)" fill="#8cc84b"/>
  <g id="nodejs-icon" transform="translate(43.826 37.81)">
    <path id="Path_61" data-name="Path 61" d="M51.708,1.905a10.382,10.382,0,0,1,10.135,0Q84.99,14.984,108.138,28.054a9.53,9.53,0,0,1,4.813,8.208V88.719a9.634,9.634,0,0,1-5.173,8.386q-23.07,13.007-46.129,26.024a10.088,10.088,0,0,1-10.247-.285q-6.916-4.009-13.841-8a8.149,8.149,0,0,1-2.67-1.922c.588-.793,1.64-.892,2.494-1.238a32.305,32.305,0,0,0,5.461-2.548,1.274,1.274,0,0,1,1.422.085c3.943,2.261,7.851,4.587,11.807,6.826.844.487,1.7-.16,2.42-.562q22.639-12.795,45.293-25.56a1.5,1.5,0,0,0,.823-1.475q.016-25.957.005-51.917a1.622,1.622,0,0,0-.967-1.618Q80.659,21.966,57.68,9a1.6,1.6,0,0,0-1.805,0Q32.889,21.955,9.911,34.92a1.6,1.6,0,0,0-.972,1.611q0,25.957,0,51.92a1.468,1.468,0,0,0,.833,1.456q6.134,3.478,12.276,6.932c2.305,1.241,5.136,1.978,7.675,1.027a5.822,5.822,0,0,0,3.77-5.471c.021-17.2-.011-34.41.016-51.611a1.3,1.3,0,0,1,1.411-1.323c1.965-.013,3.932-.026,5.9.005A1.361,1.361,0,0,1,42.1,41.041c-.008,17.313.021,34.626-.013,51.938.005,4.614-1.89,9.634-6.158,11.892-5.258,2.724-11.756,2.146-16.951-.466-4.5-2.244-8.788-4.893-13.2-7.3A9.611,9.611,0,0,1,.6,88.72V36.262A9.548,9.548,0,0,1,5.582,27.95Q28.648,14.933,51.708,1.905Z" transform="translate(-0.603 -0.584)" fill="#fff"/>
    <path id="Path_62" data-name="Path 62" d="M123.364,85.773c6.707-.432,13.886-.256,19.922,3.048,4.673,2.532,7.263,7.846,7.346,13.037A1.411,1.411,0,0,1,149.1,102.9c-1.946,0-3.892.026-5.838-.013a1.5,1.5,0,0,1-1.409-1.459,8.887,8.887,0,0,0-4.252-6.142c-3.589-1.8-7.75-1.706-11.663-1.669-2.857.152-5.929.4-8.349,2.079a5.29,5.29,0,0,0-1.759,5.91c.625,1.486,2.34,1.965,3.743,2.407,8.082,2.114,16.647,1.9,24.575,4.685,3.282,1.134,6.493,3.339,7.617,6.775,1.47,4.606.825,10.112-2.452,13.809-2.658,3.043-6.528,4.7-10.389,5.6a49.91,49.91,0,0,1-15.681.666c-4.9-.559-10.008-1.848-13.793-5.189a14.475,14.475,0,0,1-4.662-11.418,1.308,1.308,0,0,1,1.432-1.153c1.96-.016,3.919-.021,5.879,0a1.373,1.373,0,0,1,1.4,1.358c.362,2.367,1.251,4.85,3.315,6.253,3.983,2.569,8.98,2.393,13.54,2.465,3.778-.168,8.019-.218,11.1-2.715a6.132,6.132,0,0,0,1.669-5.857c-.476-1.731-2.287-2.537-3.841-3.065-7.979-2.524-16.639-1.608-24.541-4.462-3.208-1.134-6.31-3.277-7.542-6.573-1.72-4.664-.932-10.434,2.689-14.006,3.53-3.554,8.626-4.923,13.471-5.413Z" transform="translate(-58.844 -48.115)" fill="#fff"/>
  </g>
</svg>
